<?xml version="1.0" standalone="no"?>
<!DOCTYPE svg PUBLIC "-//W3C//DTD SVG 20010904//EN"
 "http://www.w3.org/TR/2001/REC-SVG-20010904/DTD/svg10.dtd">
<svg version="1.0" xmlns="http://www.w3.org/2000/svg"
 width="16.000000pt" height="16.000000pt" viewBox="0 0 16.000000 16.000000"
 preserveAspectRatio="xMidYMid meet">

<g transform="translate(0.000000,16.000000) scale(0.100000,-0.100000)"
fill="#000000" stroke="none">
<path d="M4 147 c-3 -8 -4 -43 -2 -78 l3 -64 75 0 75 0 0 75 0 75 -73 3 c-55
2 -74 -1 -78 -11z m56 -29 l0 -22 16 22 c8 12 22 22 30 22 12 0 12 -4 -2 -25
-15 -23 -15 -27 5 -60 16 -28 18 -35 5 -35 -8 0 -20 11 -26 25 -14 32 -28 32
-28 0 0 -16 -6 -25 -15 -25 -12 0 -15 13 -15 60 0 47 3 60 15 60 9 0 15 -9 15
-22z"/>
</g>
</svg>
